<svg width="568" height="568" viewBox="0 0 568 568" fill="none" xmlns="http://www.w3.org/2000/svg">
<rect width="568" height="568" fill="black"/>
<path d="M128.872 257.048C103.912 257.048 86.248 239.384 86.248 209.688C86.248 180.76 103.016 162.072 129.128 162.072C152.936 162.072 165.736 174.232 169.704 195.864L149.48 196.632C147.304 185.24 140.392 178.456 129.128 178.456C114.664 178.456 106.216 190.744 106.216 209.688C106.216 228.888 115.048 240.664 129 240.664C141.288 240.664 147.944 233.368 149.736 221.08L170.088 221.848C166.376 243.992 152.424 257.048 128.872 257.048ZM183.073 255V164.12H202.273V194.84C205.985 188.056 213.025 184.856 221.217 184.856C236.577 184.856 244.385 195.608 244.385 210.84V255H225.185V215.448C225.185 205.336 222.241 200.088 214.817 200.088C206.881 200.088 202.273 205.592 202.273 215.96V255H183.073ZM261.323 255V186.392H280.523V255H261.323ZM260.939 177.944V162.584H280.779V177.944H260.939ZM315.243 255C304.107 255 297.323 249.752 297.323 237.08V164.12H316.523V235.032C316.523 239.128 318.443 240.664 322.027 240.664H326.635V255H315.243ZM355.993 255C344.857 255 338.073 249.752 338.073 237.08V164.12H357.273V235.032C357.273 239.128 359.193 240.664 362.777 240.664H367.385V255H355.993ZM380.073 255V186.392H399.273V255H380.073ZM379.689 177.944V162.584H399.529V177.944H379.689Z" fill="white"/>
<path d="M128.104 401.048C101.992 401.048 86.248 381.72 86.248 353.688C86.248 326.296 102.248 306.072 129.384 306.072C152.936 306.072 165.096 318.616 169.064 337.944L148.84 338.84C147.048 328.728 141.416 322.456 129.512 322.456C113.768 322.456 106.216 335.896 106.216 353.688C106.216 371.864 113.512 384.664 129.768 384.664C141.8 384.664 149.352 376.856 150.12 365.976H129.512V351.768H169.32V399H157.288L156.648 385.944C151.912 395.16 141.032 401.048 128.104 401.048ZM206.226 400.536C192.018 400.536 183.698 391.064 183.698 374.552V330.392H202.898V370.072C202.898 380.696 206.098 385.304 213.01 385.304C220.818 385.304 225.426 380.056 225.426 369.176V330.392H244.626V399H227.09L226.834 387.992C223.25 396.312 216.21 400.536 206.226 400.536ZM282.056 400.536C267.72 400.536 257.992 393.624 257.992 381.848C257.992 369.816 265.544 363.672 280.52 360.6L302.664 356.248C302.664 347.288 298.568 342.808 290.888 342.808C283.72 342.808 279.624 346.264 278.344 352.664L259.144 351.768C261.704 336.664 273.096 328.856 290.888 328.856C311.368 328.856 321.864 338.84 321.864 357.528V380.952C321.864 384.792 323.144 385.816 325.704 385.816H327.624V399C326.344 399.384 323.4 399.768 320.712 399.768C313.672 399.768 307.4 397.336 305.736 388.632C302.152 395.928 293.704 400.536 282.056 400.536ZM286.664 387.352C296.264 387.352 302.664 381.464 302.664 371.608V368.28L287.048 371.608C280.776 372.888 277.704 375.576 277.704 380.056C277.704 384.664 280.776 387.352 286.664 387.352ZM354.401 399L329.313 330.392H349.409L365.665 379.672L381.921 330.392H401.889L376.801 399H354.401ZM431.181 400.536C416.845 400.536 407.117 393.624 407.117 381.848C407.117 369.816 414.669 363.672 429.645 360.6L451.789 356.248C451.789 347.288 447.693 342.808 440.013 342.808C432.845 342.808 428.749 346.264 427.469 352.664L408.269 351.768C410.829 336.664 422.221 328.856 440.013 328.856C460.493 328.856 470.989 338.84 470.989 357.528V380.952C470.989 384.792 472.269 385.816 474.829 385.816H476.749V399C475.469 399.384 472.525 399.768 469.837 399.768C462.797 399.768 456.525 397.336 454.861 388.632C451.277 395.928 442.829 400.536 431.181 400.536ZM435.789 387.352C445.389 387.352 451.789 381.464 451.789 371.608V368.28L436.173 371.608C429.901 372.888 426.829 375.576 426.829 380.056C426.829 384.664 429.901 387.352 435.789 387.352Z" fill="#44FFBC"/>
</svg>
